<svg width="40" height="40" viewBox="0 0 40 40" fill="none" xmlns="http://www.w3.org/2000/svg">
<path d="M33.5135 4.8048H36.9369C38.6186 4.8048 40 6.12613 40 7.74775V36.9369C40 38.6186 38.6186 40 36.9369 40H3.003C1.32132 40 0 38.6186 0 36.9369V7.74775C0 6.12613 1.32132 4.8048 3.003 4.8048H6.48649V4.44444C6.48649 3.42342 6.78679 2.28228 7.56757 1.44144C8.28829 0.660661 9.48949 0 11.2913 0C13.1532 0 14.4144 0.660661 15.1952 1.44144C15.9159 2.28228 16.2162 3.48348 16.2162 4.44444V4.8048H23.7237V4.44444C23.7237 3.42342 24.0841 2.28228 24.8649 1.44144C25.5856 0.660661 26.7868 0 28.6486 0C30.4505 0 31.7117 0.660661 32.4925 1.44144C33.2132 2.28228 33.5135 3.48348 33.5135 4.44444V4.8048ZM13.2733 9.66967V4.44444C13.2733 3.48348 12.6727 3.003 11.2913 3.003C9.96997 3.003 9.42943 3.48348 9.42943 4.44444V9.66967C9.42943 10.6306 9.96997 11.0511 11.2913 11.0511C12.6727 11.0511 13.2733 10.6306 13.2733 9.66967ZM30.5706 9.66967V4.44444C30.5706 3.48348 29.8498 3.003 28.6486 3.003C27.2673 3.003 26.6667 3.48348 26.6667 4.44444V9.66967C26.6667 10.6306 27.2673 11.0511 28.6486 11.0511C29.97 11.0511 30.5706 10.6306 30.5706 9.66967ZM4.08408 35.9159H35.9159V14.7147H4.08408V35.9159ZM9.66967 22.7027H12.6727C12.6727 21.9219 12.8529 21.2613 13.2733 20.7207C13.6336 20.2402 14.2943 19.9399 15.0751 19.9399C15.6156 19.9399 16.1562 20.1201 16.5766 20.4805C16.997 20.8408 17.2973 21.3814 17.2973 22.042C17.2973 22.4625 17.1772 22.8228 16.9369 23.0631C16.7568 23.3033 16.3964 23.5435 16.0961 23.6637C15.7958 23.7838 15.4354 23.9039 15.0751 23.9039C14.6547 23.964 14.2342 23.964 13.9339 23.9039V26.1261C14.2943 26.1261 14.7748 26.1261 15.1952 26.1862C15.5556 26.1862 15.976 26.2462 16.2763 26.4264C16.6366 26.5465 16.997 26.7868 17.2372 27.1471C17.4174 27.4474 17.5375 27.8679 17.5375 28.4084C17.5375 29.1892 17.2973 29.7898 16.8168 30.2102C16.3363 30.6907 15.7357 30.8709 15.015 30.8709C14.5946 30.8709 14.1141 30.8108 13.8138 30.6306C13.5135 30.4505 13.2132 30.2703 12.973 30.03C12.7928 29.7297 12.6126 29.3694 12.4925 29.009C12.3724 28.6486 12.3123 28.2282 12.3123 27.8078H9.30931C9.30931 28.7087 9.42943 29.5496 9.72973 30.2102C9.96997 30.9309 10.3303 31.4715 10.8709 31.952C11.3514 32.4324 12.012 32.8529 12.6727 33.0931C13.3934 33.3333 14.2342 33.4535 15.0751 33.4535C15.7958 33.4535 16.5766 33.3333 17.2372 33.0931C17.8979 32.9129 18.4985 32.6126 19.039 32.1922C19.5796 31.7718 20.0601 31.1712 20.3604 30.5706C20.6607 29.9099 20.8408 29.1892 20.8408 28.3483C20.8408 27.5075 20.6006 26.7267 20.1201 26.0661C19.6396 25.4655 18.9189 25.045 18.0781 24.8649V24.8048C18.7988 24.6246 19.3393 24.2042 19.6997 23.6036C20.0601 23.0631 20.2402 22.3423 20.2402 21.6216C20.2402 20.961 20.1201 20.3604 19.8198 19.8198C19.5195 19.2793 19.039 18.7988 18.5586 18.4384C18.0781 18.0781 17.5375 17.8378 16.9369 17.6577C16.3363 17.4775 15.6757 17.3574 15.0751 17.3574C14.2943 17.3574 13.5135 17.4775 12.8529 17.7177C12.2523 18.018 11.6517 18.3784 11.1712 18.7988C10.7508 19.2793 10.3904 19.8799 10.0901 20.5405C9.84985 21.1411 9.72973 21.9219 9.66967 22.7027ZM26.7267 23.1231V33.1532H29.9099V17.6577H27.3874C27.3273 18.2583 27.0871 18.7387 26.7868 19.0991C26.5465 19.5195 26.1862 19.8799 25.8258 20.1201C25.4054 20.3604 24.985 20.5405 24.4444 20.6006C23.964 20.7207 23.4234 20.7207 22.8829 20.7207V23.1231H26.7267Z" fill="#79BC89"/>
</svg>
