<svg width="25" height="25" viewBox="0 0 25 25" fill="none" xmlns="http://www.w3.org/2000/svg">
<path d="M12.5 0C5.5875 0 0 5.5875 0 12.5C0 19.4125 5.5875 25 12.5 25C19.4125 25 25 19.4125 25 12.5C25 5.5875 19.4125 0 12.5 0ZM17.875 17.875C17.7594 17.9909 17.622 18.0828 17.4708 18.1455C17.3196 18.2083 17.1575 18.2406 16.9937 18.2406C16.83 18.2406 16.6679 18.2083 16.5167 18.1455C16.3655 18.0828 16.2281 17.9909 16.1125 17.875L12.5 14.2625L8.8875 17.875C8.65378 18.1087 8.33678 18.24 8.00625 18.24C7.67572 18.24 7.35872 18.1087 7.125 17.875C6.89128 17.6413 6.75997 17.3243 6.75997 16.9937C6.75997 16.8301 6.79221 16.668 6.85484 16.5168C6.91747 16.3656 7.00927 16.2282 7.125 16.1125L10.7375 12.5L7.125 8.8875C6.89128 8.65378 6.75997 8.33678 6.75997 8.00625C6.75997 7.67572 6.89128 7.35872 7.125 7.125C7.35872 6.89128 7.67572 6.75997 8.00625 6.75997C8.33678 6.75997 8.65378 6.89128 8.8875 7.125L12.5 10.7375L16.1125 7.125C16.2282 7.00927 16.3656 6.91747 16.5168 6.85484C16.668 6.79221 16.8301 6.75997 16.9937 6.75997C17.1574 6.75997 17.3195 6.79221 17.4707 6.85484C17.6219 6.91747 17.7593 7.00927 17.875 7.125C17.9907 7.24073 18.0825 7.37812 18.1452 7.52932C18.2078 7.68053 18.24 7.84259 18.24 8.00625C18.24 8.16991 18.2078 8.33197 18.1452 8.48318C18.0825 8.63438 17.9907 8.77177 17.875 8.8875L14.2625 12.5L17.875 16.1125C18.35 16.5875 18.35 17.3875 17.875 17.875Z" fill="#79BC89"/>
</svg>
