<svg width="98" height="98" viewBox="0 0 98 98" fill="none" xmlns="http://www.w3.org/2000/svg">
<g filter="url(#filter0_d_26_335)">
<circle cx="49" cy="45" r="45" fill="#77625C"/>
</g>
<path d="M45.5445 55.4166H39.3685V51.4895H45.1949C45.3503 50.1543 45.6416 48.8191 46.166 47.5624H39.3685V43.6353H48.7296C48.7878 43.5764 48.8267 43.5175 48.8849 43.439C51.259 41.0518 54.4705 39.7108 57.8187 39.7083H39.3685V35.7812H58.7898V39.7083H57.8187C60.965 39.7083 64.1112 40.906 66.5583 43.2819V31.8541C66.5583 30.8126 66.1491 29.8137 65.4206 29.0773C64.6922 28.3408 63.7042 27.9271 62.6741 27.9271H54.556C53.7403 25.6494 51.6039 24 49.0792 24C46.5544 24 44.4181 25.6494 43.6024 27.9271H35.4843C33.3479 27.9271 31.6 29.6943 31.6 31.8541V59.3436C31.6 60.3851 32.0092 61.384 32.7377 62.1205C33.4661 62.8569 34.4541 63.2707 35.4843 63.2707H51.1378C50.3415 62.7602 49.5841 62.1907 48.8849 61.5035C47.137 59.756 46.0689 57.6353 45.5445 55.4166ZM49.0792 27.9271C50.1473 27.9271 51.0213 28.8107 51.0213 29.8906C51.0213 30.9705 50.1473 31.8541 49.0792 31.8541C48.011 31.8541 47.137 30.9705 47.137 29.8906C47.137 28.8107 48.011 27.9271 49.0792 27.9271ZM65.2182 57.1837C66.0728 55.8289 66.5583 54.1992 66.5583 52.4713C66.5583 47.5624 62.6741 43.6353 57.8187 43.6353C52.9634 43.6353 49.0792 47.5624 49.0792 52.4713C49.0792 57.3801 52.9634 61.3072 57.8187 61.3072C59.5084 61.3072 61.1009 60.8163 62.441 59.972L68.5004 66L71.2 63.2707L65.2182 57.1837ZM57.8187 57.3801C56.531 57.3801 55.2961 56.8629 54.3855 55.9423C53.475 55.0217 52.9634 53.7732 52.9634 52.4713C52.9634 51.1693 53.475 49.9208 54.3855 49.0002C55.2961 48.0796 56.531 47.5624 57.8187 47.5624C59.1065 47.5624 60.3414 48.0796 61.252 49.0002C62.1625 49.9208 62.6741 51.1693 62.6741 52.4713C62.6741 53.7732 62.1625 55.0217 61.252 55.9423C60.3414 56.8629 59.1065 57.3801 57.8187 57.3801Z" fill="white"/>
<defs>
<filter id="filter0_d_26_335" x="0" y="0" width="98" height="98" filterUnits="userSpaceOnUse" color-interpolation-filters="sRGB">
<feFlood flood-opacity="0" result="BackgroundImageFix"/>
<feColorMatrix in="SourceAlpha" type="matrix" values="0 0 0 0 0 0 0 0 0 0 0 0 0 0 0 0 0 0 127 0" result="hardAlpha"/>
<feOffset dy="4"/>
<feGaussianBlur stdDeviation="2"/>
<feComposite in2="hardAlpha" operator="out"/>
<feColorMatrix type="matrix" values="0 0 0 0 0 0 0 0 0 0 0 0 0 0 0 0 0 0 0.25 0"/>
<feBlend mode="normal" in2="BackgroundImageFix" result="effect1_dropShadow_26_335"/>
<feBlend mode="normal" in="SourceGraphic" in2="effect1_dropShadow_26_335" result="shape"/>
</filter>
</defs>
</svg>
