<svg width="25" height="24" viewBox="0 0 25 24" fill="none" xmlns="http://www.w3.org/2000/svg">
<path d="M11.3636 20.5227V22.7955H2.27273C1.02273 22.7955 0 21.7727 0 20.5227V2.3409C0 1.0909 1.02273 0.0681763 2.27273 0.0681763H22.7273C23.9773 0.0681763 25 1.0909 25 2.3409V11.5455L24.7727 11.3182C24.2045 10.75 23.5227 10.4091 22.7273 10.4091V4.61363H12.5H2.27273V20.5227H11.3636ZM23.1818 12.9091L24.6591 14.3864C24.8864 14.6136 24.8864 15.0682 24.6591 15.2955L23.5227 16.4318L21.1364 14.0455L22.2727 12.9091C22.3864 12.7955 22.5 12.6818 22.7273 12.6818C22.9545 12.6818 23.0682 12.7955 23.1818 12.9091ZM22.8409 17L16.0227 23.9318H13.6364V21.5455L20.5682 14.6136L22.8409 17Z" fill="#79BC89"/>
</svg>
