<svg width="32" height="30" viewBox="0 0 32 30" fill="none" xmlns="http://www.w3.org/2000/svg">
<path d="M19.7696 24.81C23.0088 24.315 26.6129 24 30.4147 24V30H4.56221C4.56221 29.025 9.42857 26.79 16.7281 25.35V15.6C15.4507 15.975 14.371 16.815 13.6866 17.925C13.215 17.1466 12.5467 16.5022 11.747 16.0548C10.9474 15.6073 10.0438 15.3721 9.12442 15.3721C8.20507 15.3721 7.30143 15.6073 6.5018 16.0548C5.70216 16.5022 5.03387 17.1466 4.56221 17.925C4.60783 12.555 9.88479 8.145 16.7281 7.56V7.5C16.7281 7.10218 16.8883 6.72064 17.1735 6.43934C17.4587 6.15804 17.8455 6 18.2488 6C18.6522 6 19.039 6.15804 19.3242 6.43934C19.6094 6.72064 19.7696 7.10218 19.7696 7.5V7.56C26.6129 8.145 31.8747 12.555 31.9355 17.925C31.4638 17.1466 30.7955 16.5022 29.9959 16.0548C29.1963 15.6073 28.2926 15.3721 27.3733 15.3721C26.4539 15.3721 25.5503 15.6073 24.7506 16.0548C23.951 16.5022 23.2827 17.1466 22.8111 17.925C22.1267 16.815 21.047 15.975 19.7696 15.585V24.81ZM7.60369 0C7.60369 0.984914 7.40701 1.96018 7.02489 2.87013C6.64277 3.78007 6.08269 4.60686 5.37662 5.3033C4.67055 5.99974 3.83233 6.55219 2.9098 6.9291C1.98728 7.30601 0.99853 7.5 0 7.5V0H7.60369Z" fill="#79BC89"/>
</svg>
