<svg width="83" height="73" viewBox="0 0 83 73" fill="none" xmlns="http://www.w3.org/2000/svg">
<path d="M3.69998 70.2999L3.79998 69.8999V69.3999C3.79998 68.9999 3.89998 68.6999 4.09998 68.2999V68.1999L3.69998 67.8999L3.09998 67.9999H2.49998L2.39998 68.0999V68.2999L2.79998 68.6999H2.99998L3.19998 68.7999L2.99998 70.1999C2.99998 70.4999 2.69998 70.7999 2.29998 70.9999H2.09998L1.89998 69.9999V69.0999V68.9999V68.7999L1.99998 68.3999V67.8999L2.29998 66.5999L2.69998 65.9999H2.99998V66.2999L3.39998 66.5999L3.59998 66.3999L3.39998 65.7999C3.19998 65.5999 2.99998 65.3999 2.69998 65.2999C2.49998 65.2999 2.19998 65.2999 1.99998 65.4999C1.59998 66.0999 1.29998 66.7999 1.19998 67.4999V68.0999L1.09998 68.2999V69.2999V69.8999V70.4999L1.19998 70.8999C1.39998 71.1999 1.59998 71.4999 1.99998 71.6999C2.29998 71.7999 2.59998 71.6999 2.79998 71.3999C2.89998 71.4999 2.99998 71.6999 2.99998 71.8999L3.39998 72.2999L3.49998 72.1999L3.79998 72.0999C3.79998 71.7999 3.79998 71.4999 3.69998 71.2999V70.7999V70.2999Z" fill="white"/>
<path d="M7.09998 67.7C6.59998 68.3 6.29998 69 6.09998 69.7V70.9L6.39997 71.5C6.59997 71.7 6.89998 71.8 7.19998 71.8C7.59998 71.8 7.89998 71.6 8.19998 71.3C8.69998 70.9 8.99998 70.3 9.09998 69.7C8.99998 69 8.69998 68.3 8.29998 67.7L7.79998 67.4C7.59998 67.5 7.39998 67.6 7.09998 67.7ZM8.49998 69.3V69.9V70.1C8.29998 70.5 7.99998 70.9 7.59998 71.1L7.19998 71.3L6.99998 71.2L6.79998 70.6V70.3V69.7C6.89998 69.4 7.09998 69.1 7.29998 68.8L7.79998 68.3H8.09998L8.49998 69.3Z" fill="white"/>
<path d="M12.2 67.7C11.7 68.3 11.4 69 11.2 69.7V70.9L11.5 71.5C11.7 71.7 12 71.8 12.3 71.9C12.7 71.9 13 71.7 13.3 71.4C13.8 71 14.1 70.4 14.2 69.8C14.1 69.1 13.8 68.4 13.4 67.8L13 67.5C12.7 67.5 12.4 67.6 12.2 67.7ZM13.6 69.3V69.9V70C13.4 70.4 13.1 70.8 12.7 71L12.3 71.2L12 71.1L11.8 70.6V70.3V69.7C11.9 69.4 12.1 69.1 12.3 68.8L12.8 68.3H13.2L13.6 69.3Z" fill="white"/>
<path d="M18.9 64.6C18.5 65.4 18.3 66.3 18.2 67.2V67.9V68.4V68.5L17.5 68.3C17.3 68.3 17 68.4 16.8 68.5C16.3 68.9 16 69.5 15.9 70.1C15.9 70.6 16.1 71 16.4 71.4L17 71.8H17.5L18.3 71.3L18.6 71.4H18.8L19 71.2V70.7L18.8 70.2V69.2V68.5L18.9 68.2V67.6C18.9 66.8 19.2 66 19.5 65.3V64.9L19.3 64.7L18.9 64.6ZM18.2 70.1V70.6L18 70.8L17.3 71.2L16.9 71.1L16.7 70.6C16.7 70.2 16.9 69.8 17.1 69.4L17.7 68.9L18.3 69.2V70.1H18.2Z" fill="white"/>
<path d="M23.1 68.6L23.2 68.3L23.1 68L22.9 67.9H22.6L22.4 68.1V69.3V71.4L22.7 71.7L22.8 71.6C22.9 71.6 23.1 71.6 23.2 71.5V71V70.5V69.6V69.4V69.3V68.6H23.1Z" fill="white"/>
<path d="M23.2 66.2L23.1 65.8L22.7 65.6L22.3 65.7L22.5 66.3C22.6 66.5 22.8 66.6 23 66.6C23.1 66.6 23.3 66.5 23.3 66.3L23.2 66.1V66.2Z" fill="white"/>
<path d="M27.1 71.7L27.6 71.6L28.4 71.1L28.7 71.2H28.9L29.1 71V70.5L28.9 69.9V68.9V68.2L29 67.9V67.4C29 66.6 29.3 65.8 29.6 65.1V64.7L29.4 64.5H29C28.6 65.3 28.4 66.2 28.3 67.1V67.8H28.2V68.3V68.4L27.5 68.2C27.3 68.2 27 68.3 26.8 68.4C26.3 68.8 26 69.4 25.9 70C25.9 70.5 26.1 70.9 26.4 71.3L27.1 71.7ZM27.2 69.3L27.8 68.8L28.3 69.1V70V70.5L28 70.7H28.1L27.4 71.1L27.1 71L26.9 70.5C26.9 70.1 27 69.7 27.2 69.3Z" fill="white"/>
<path d="M33.9 69.1V68.8C33.6 68.3 33.1 67.9 32.6 67.6C32.4 67.6 32.1 67.6 31.9 67.8C31.5 68.2 31.3 68.7 31.3 69.2V70.2C31.3 70.6 31.4 71.1 31.7 71.4C31.9 71.6 32.1 71.8 32.4 71.8V71.7C33.3 71.6 34.1 71.2 34.7 70.6C34.7 70.4 34.7 70.3 34.6 70.2C33.9 70.5 33.2 70.8 32.5 71.1H32.2L32 70.5V70C32.7 69.9 33.3 69.5 33.9 69.1ZM31.9 69.3L32.1 68.7C32.2 68.5 32.3 68.3 32.5 68.1L33.1 68.6V68.8L32.5 69.2L32.1 69.4H31.9V69.3Z" fill="white"/>
<path d="M38.8 67.8C38.6 67.6 38.3 67.4 37.9 67.3H37.4L37.2 67.5C36.6 68.1 36.3 68.8 36.2 69.6V70.2C36.2 70.6 36.3 70.9 36.5 71.2L37 71.6H37.4C37.9 71.3 38.3 70.8 38.5 70.3H38.7L38.9 70.7C39 70.9 39.3 71.1 39.5 71.1L39.7 70.9L39.5 70.5H39.4L39 69.8V68.9C39.1 68.5 39 68.2 38.8 67.8ZM38.3 68.8C38.1 69.6 37.7 70.2 37.2 70.8H37L36.9 70.5V69.7L37.1 68.9C37.3 68.5 37.5 68.1 37.9 67.9H38.2L38.3 68.1V68.8Z" fill="white"/>
<path d="M43.7 67.7L44.2 67.8L44.3 68L44.7 67.9L44.6 67.6C44.4 67.3 44.1 67.2 43.7 67.2L42.8 67.4C42.5 67.5 42.2 67.7 42 68L42.1 68.5C42.6 69.2 43.1 69.8 43.8 70.4V70.5C43.6 70.8 43.4 70.9 43.1 71.1H42.8C42.5 70.9 42.2 70.7 42.1 70.4H41.8L41.7 70.6L41.9 70.9C42.2 71.2 42.5 71.5 42.9 71.6C43.4 71.6 43.8 71.5 44.2 71.1L44.5 70.6C44.5 70.3 44.3 70 44.1 69.7L43.2 69L42.8 68.3L42.9 68L43.7 67.7Z" fill="white"/>
<path d="M46.7 68.2C47.4 68.2 48 68.1 48.7 68.1H49.2L49.4 68.2H49.6L49.9 67.9V67.6L49.6 67.3C48.5 67.4 47.5 67.5 46.5 67.6L46.7 68.2Z" fill="white"/>
<path d="M52.8 66L53.7 65.4H54.3L54.6 65.6L54.9 65.5V65.2C54.7 65 54.5 64.9 54.2 64.8H53.3C53 64.9 52.7 65 52.4 65.2C52.1 65.4 51.9 65.8 51.8 66.2L52 67.1C52.6 68 53.3 68.9 54.1 69.6C54.1 69.8 54.1 70 54 70.2L53 70.8H52.4L52.2 70.6L52 70.4L51.6 70.5L51.9 71.2C52.2 71.2 52.4 71.3 52.6 71.4H52.7C53.3 71.4 53.8 71.2 54.3 70.9C54.6 70.7 54.7 70.4 54.8 70.1V69.5C54.4 68.8 53.8 68.3 53.2 67.8L52.6 66.7V66.2L52.8 66Z" fill="white"/>
<path d="M58.7 68.2L58.8 68H59.8L60.2 67.8L60.1 67.4L59.7 67.2L59 67.5L58.7 67.4V66.6V66.4V65L58.8 64.6V64.2L58.3 64C58.1 64 58 64.1 57.9 64.2V64.4V66.2V67.6L57.7 67.8H56.9H56.4L56.3 68V68.2L56.8 68.6L57.6 68.4H58V71.2L58.2 71.6H58.3L58.9 71.4L58.7 70.5V70V69.7V69.2V69V68.2Z" fill="white"/>
<path d="M62.4 68.9L62.5 68.8C62.6 68.4 62.5 68.2 62.2 68.1L61.7 68.2V68.8V70L61.9 70.6C62 70.9 62.2 71.1 62.5 71.2H62.9L63.8 70.3H64C64.1 70.9 64.4 71.5 64.8 71.9H64.9L65.3 71.7C64.9 71 64.7 70.2 64.6 69.4V68.3L64.3 67.9C64.1 67.9 64 67.9 63.8 68V68.3V69.1C63.6 69.6 63.2 70 62.8 70.3H62.6L62.5 69.8V69.5V68.9H62.4Z" fill="white"/>
<path d="M69.6 64.2C69.2 65 69 65.9 68.9 66.8V67.5V68V68.1L68.2 68C68 68 67.7 68.1 67.5 68.2C67 68.6 66.7 69.2 66.6 69.8C66.6 70.3 66.8 70.7 67.1 71.1L67.7 71.5H68.2L69 71L69.3 71.1H69.5L69.7 70.9V70.4L69.5 69.9V68.9V68L69.6 67.7V67.1C69.6 66.3 69.9 65.5 70.2 64.8V64.4L70 64.2H69.6ZM68.9 69.8V70.3L68.6 70.5H68.7L68 70.9L67.6 70.8L67.4 70.3C67.4 69.9 67.6 69.5 67.8 69.1L68.4 68.6L68.9 68.9V69.8V69.8Z" fill="white"/>
<path d="M73.8 68.3001L73.9 68.0001L73.8 67.7001L73.6 67.6001H73.3L73.2 67.8001V69.0001V71.1001L73.5 71.4001L73.6 71.3001C73.7 71.3001 73.9 71.3001 74 71.2001V70.7001V70.2001V69.3001L73.9 69.1001V68.9001V68.3001H73.8Z" fill="white"/>
<path d="M73.9 65.9L73.8 65.5L73.4 65.3L73.1 65.5L73.3 66.1C73.4 66.3 73.6 66.4 73.8 66.4V66.3C73.9 66.3 74.1 66.2 74.1 66V65.9H73.9Z" fill="white"/>
<path d="M78.9 67.1C78.6 67.1 78.4 67.2 78.1 67.3C77.6 67.9 77.3 68.6 77.1 69.3V70.5L77.5 71.1C77.7 71.3 78 71.4 78.3 71.4C78.7 71.4 79 71.2 79.3 70.9C79.8 70.5 80.1 69.9 80.2 69.3C80.1 68.6 79.8 67.9 79.4 67.3L78.9 67.1ZM79.5 69.5V69.7C79.3 70.1 79 70.5 78.7 70.7L78.3 70.9L78.1 70.8L77.9 70.3V70V69.4C78 69.1 78.2 68.8 78.4 68.5L78.9 68H79L79.5 69.1V69.5Z" fill="white"/>
<path d="M1.30001 55.4L0.900012 56.3L1.20001 57.3L3.10001 58.5L2.80001 59.9L2.90001 60.1L3.30001 60.3H3.70001L4.50001 59.2L5.50001 59.4C5.70001 59.5 6.00001 59.4 6.20001 59.2L6.00001 59L4.70001 58.3C4.90001 57.1 5.30001 56 5.80001 55L8.80001 53.8C9.70001 54.1 10.4 54.7 10.8 55.6V56.2L9.30001 56.6H7.50001L7.10001 56.8V56.9L7.80001 57.5H8.80001L10 57.2L10.9 57.5L10.6 58.8C10.2 59.5 9.60001 60.2 8.90001 60.7H7.40001L7.50001 61C7.80001 61.4 8.20001 61.6 8.70001 61.7L10.3 61.2C11.3 60.2 11.9 59 12.1 57.6L12.7 57H13.7L13.8 56.9H14.8C15.4 56.9 16 56.7 16.5 56.4V56.3L16 56.1H14L14.1 56H12.2L11.6 54.6L10.5 53.7C10.8 52.7 11.2 51.8 11.8 51L11.7 50.5C10.9 50.1 10 49.8 9.20001 49.5H8.00001L7.90001 49.6V49.8C8.50001 50.4 9.30001 50.7 10.2 50.8L9.20001 52.8H9.00001L8.40001 53.4L6.30001 53.8L5.90001 53.7H4.70001L4.40001 53.9H3.20001C3.10001 53.3 3.30001 52.6 3.70001 52.1V51.6L3.40001 51.4H2.70001C2.50001 52.1 2.20001 52.9 1.80001 53.9C1.20001 54 0.700012 54.2 0.200012 54.4V54.6L1.30001 55.4ZM2.70001 55.1L3.80001 54.7L4.40001 54.9L3.70001 57.2V57.7L2.50001 57.4L2.40001 57C2.30001 56.3 2.40001 55.7 2.70001 55.1Z" fill="white"/>
<path d="M26 51.5L25.9 51.6V53.6L25.8 53.7L26 54.4L27 54.9H28L28.1 54.8H29.1L29.2 54.7H31.7L31.9 54.4L31.7 53.1L31.8 52.6V50.6L31.7 50.5L31.8 49.8V48.7L31.9 48.6L31.8 48.2C30.9 47.8 30 47.6 29.1 47.6H27.8L26.9 47.4L26.2 47.5L26.4 48.5L26 50.2V51.5ZM27.3 48.7L27.9 48.2L28.7 48.3H29.8L30.6 48.8L30.4 49.8L30.2 50C29.2 50 28.2 49.7 27.3 49.3V48.7V48.7ZM27.2 50.4C28.4 50.5 29.5 50.7 30.6 51L30.4 51.6L30.2 51.8C29.1 51.7 28.1 51.5 27 51.3L27.2 50.4ZM27 52.3H28.6C29.3 52.3 30 52.5 30.6 52.9L30.3 53.6L30.1 53.8H28L27.9 53.9C27.5 54 27.1 53.8 26.9 53.5L27 52.3Z" fill="white"/>
<path d="M29.3 58.8V57.9001L28.8 56.6L28.2 56.3L27.8 56.4001L28.1 58.3L28.8 58.8V59C28.9 59 29.1 59 29.3 58.8Z" fill="white"/>
<path d="M31 56.1001H30.7L30.9 58.1001L31.6 58.9001L32.2 58.6001L31.8 56.8001L31 56.1001Z" fill="white"/>
<path d="M24.9 56.3L24.5 56.4001V57.7001C24.6 58.7001 25 59.7 25.7 60.6C26.3 61.3 27.1 61.8 28 62L28.7 61.9001L29.2 61.3001L29 60.4001H28.8L28 60.9001L27 60.6C26.1 59.5 25.6 58.2 25.5 56.8L24.9 56.3Z" fill="white"/>
<path d="M21.1 48.4001C20 48.5001 18.9 48.8001 17.8 49.2001C17.8 49.6001 18 49.9 18.4 50.1L20.7 49.4001L21.3 49.7001L20.8 50.6L18.1 52.7001V52.9001L18.8 53.6H19.1L20.5 52.3L21.1 52.4001V54.9001L21 55V56.3L21.9 57L21.1 59.9001V60.6L21.7 61.3001L22.3 61.2V60.3C22.4 59.5 22.7 58.8 22.9 58L23 57L22.3 56.7001V52.8L22.4 51.9001C23.2 51.9001 23.9 52.2001 24.5 52.7001H25.4L25.3 52.2001C24.4 51.7001 23.4 51.3001 22.5 50.9001L22.4 50.5C22.2 50 22.4 49.5001 22.8 49.2001L23.6 49.4001L24.6 49.1V48.8L23.5 48.3L23.2 48.4001L22.4 48V46.7001L21.9 46.3C21.7 46.3 21.4 46.3001 21.2 46.4001L21.4 47.1V48.1L21.1 48.4001Z" fill="white"/>
<path d="M41.3 55.0001V58.0001L41 58.8001L39.2 59.2001H37.1L36.9 59.4001V59.6001L37.6 60.1001H39.5L40.2 59.8001C40.8 59.7001 41.5 59.9001 42 60.2001C42.5 59.8001 43.2 59.6001 43.9 59.5001H46.4C46.7 59.5001 47.1 59.4001 47.3 59.2001V58.7001C47.3 58.4001 47.1 58.2001 46.8 58.2001L44.3 58.6001H43L42.7 58.2001V57.0001L42.8 56.9001L42.7 56.5001L42.8 56.1001V53.3001L42.7 53.1001L42.9 52.3001L44.8 52.0001L45.3 52.1001C45.7 52.1001 46.1 52.0001 46.4 51.7001V51.1001L46 51.2001H43.9L42.3 51.6001H41.2L40.4 51.8001H38.2L37.8 52.0001C37.9 52.4001 38.2 52.7001 38.6 52.8001L39.6 52.7001H41.2L41.4 53.5001V54.9001L41.3 55.0001Z" fill="white"/>
<path d="M56.1 52.1001V51.0001L57.1 49.9001L57 49.5001L56.2 49.2001H56C54.2 51.5001 52.5 53.9001 50.8 56.4001V56.9001L51.4 57.3001L51.9 57.2001L53.9 53.8001L54.6 54.0001V59.3001L54.8 60.3001L55.3 60.9001L56 60.8001L56.2 60.4001L55.8 59.2001V55.8001L55.7 55.7001V53.4001L56.1 52.1001Z" fill="white"/>
<path d="M57.7 54.5L58.5 55L59 54.9L59.7 51.9L60.7 51.4H61.3L61.5 51.9V53.9L61.4 54V56.4L61.3 56.5V60.8L62 61.5C62.3 61.6 62.6 61.5 62.8 61.2V60.2L62.6 60V58.4L62.8 58.2L65.8 57.7H66.8L67.2 57.3V57L66.9 56.7L63.9 57.2C63.4 57.3 63 57.2 62.6 56.9L62.7 55.2L63.3 54.8H67.1L67.4 54.4C67.4 54.2 67.2 54 66.8 53.9H64L63.9 54C63.4 54.1 63 53.9 62.7 53.5V51.8L63.2 51.3H64.9L65 51.4L65.4 51.2H67.2L67.3 51.1L67.2 50.7L66.2 50.3L64.4 50.5H61.5L60.5 50.8L59.8 50.6L59.6 49.3L59 48.9C58.7 48.8 58.3 48.8 58.1 49.1L58.5 50.8C58.5 52 58.3 53.3 57.8 54.4V54.5H57.7Z" fill="white"/>
<path d="M71.6 53.6L72.2 52.4L73.1 52.7L74.5 52.4H75.4L73.6 54.4V54.8C74.1 55.2 74.7 55.5 75.3 55.5L75.7 56.3V57L75 57.2H73.3L73 57.5V57.6L73.8 58.2L75.4 57.9L76 58.3V59.4L75.7 60L75 60.2L74.6 60.1L74.3 60.2H72.1L71.9 60.4V60.8L72.5 61.3H73.7L75.4 61H77.2L77.3 60.9L77.7 61L78.2 60.9L78.5 61L78.8 60.9H80.3L80.6 61.1C81.3 61.2 81.9 61.1 82.5 60.8V60.3L81.9 59.9H80.3L80.2 60H77.5L77.3 59.8L77 58.9C77 58.5 77.2 58.1 77.5 57.8H79L79.3 57.6L79.2 57.1L78.3 56.7L77.5 57L76.8 56.6L76.9 55.5L77.7 55.2H78.8L79.1 55.5L79.9 55.3L80.1 54.5V54.2L78.9 53C78.7 53 78.4 53 78.2 53.1L78.4 53.7L78.2 54.1L76.6 54.6L75.6 54.5L76 53.4H76.2L76.8 52.5C77.4 52.1 78.1 51.8 78.8 51.7V51.4L78.4 51L72.8 51.8L72.1 51.7L72.4 50.6L77.9 49.7H79L79.1 49.6L80 49.8C80.1 50.3 80 50.9 79.7 51.3L79.8 51.9L80.2 52.1L81 52L81.4 49.7L81.3 48.8L80.5 48.5L78.4 48.9H77V49L76.3 48.9L76.1 48.2L76.2 47.8L76.1 47.3L75.4 46.7C75.1 46.6 74.8 46.7 74.6 46.9L75.1 48.8L75 49.1L74.5 49.3H73.3L73.2 49.4C72.7 49.4 72.2 49.2 71.8 48.8C71.5 48.7 71.2 48.8 71 49V50.1L70.5 52V52.9L71 53.6H71.6Z" fill="white"/>
<path d="M21.9 34.7C22.3 34.7 22.7 34.3 22.7 33.9L22.6 24.3L41.4 34.6L41.5 45.3C41.5 45.7 41.9 46.1 42.3 46.1C42.7 46.1 43.1 45.7 43.1 45.3L43 34.7L61.1 23.3L61.2 34.1C61.2 34.5 61.6 34.9 62 34.9C62.4 34.9 62.8 34.5 62.8 34.1L62.7 21.9V21.8C62.7 21.6 62.5 21.3 62.3 21.2L49.9 14.2C50.9 12.4 51.3 10.4 51.2 8.39996C51 5.49996 48.9 0.699962 42.2 0.699962C39.6 0.599962 37.1 1.59996 35.2 3.39996C33.7 4.89996 32.9 6.79996 32.9 8.89996C32.9 10.9 33.4 12.9 34.4 14.7L21.4 22C21.2 22.1 21 22.4 21 22.7L21.1 34C21.2 34.4 21.5 34.7 21.9 34.7ZM36 15.4C36 15.4 36 15.3 36 15.4C36.4 15.1 36.5 14.6 36.2 14.2C35.1 12.6 34.6 10.7 34.6 8.69996C34.6 7.09996 35.3 5.49996 36.4 4.39996C38 2.89996 40.2 2.09996 42.4 2.19996C44.6 1.99996 46.8 2.99996 48.2 4.59996C49.1 5.69996 49.6 6.99996 49.7 8.39996C49.8 10.4 49.3 12.3 48.2 13.9C48.1 14.1 48 14.3 48 14.5C48 14.7 48.2 14.9 48.4 15L60.4 21.8L42.2 33.3L23.1 22.8L36 15.4Z" fill="white"/>
<path d="M42.3 22.7C42.7 22.7 43.1 22.4 43.1 21.9L43 9.99995C43 9.59995 42.6 9.19995 42.2 9.19995C41.8 9.19995 41.4 9.59995 41.4 9.99995V21.9C41.5 22.4 41.8 22.7 42.3 22.7Z" fill="white"/>
<path d="M46.6 15.6999C44.1 17.9999 43.7 21.8999 43.7 21.9999C43.7 22.3999 44 22.7999 44.4 22.8999H44.5C44.9 22.8999 45.2 22.5999 45.3 22.1999C45.3 22.1999 45.7 18.6999 47.7 16.7999C48 16.4999 48 15.9999 47.7 15.6999C47.4 15.3999 46.9 15.3999 46.6 15.6999Z" fill="white"/>
<path d="M39.1 22.1999C39.2 22.5999 39.5 22.7999 39.9 22.7999H40C40.4 22.6999 40.7 22.2999 40.6 21.8999C40.1 19.6999 39.1 17.5999 37.5 15.9999C37.2 15.6999 36.7 15.6999 36.4 15.9999C36.1 16.2999 36.1 16.7999 36.4 17.0999C37.8 18.5999 38.7 20.2999 39.1 22.1999Z" fill="white"/>
<path d="M37.4 25.3C37.4 25.7 37.6 26.1 38 26.4C37.9 26.6 37.8 26.8 37.8 27C37.8 27.4 38.1 27.8 38.5 28.1C38.4 28.3 38.3 28.5 38.3 28.7C38.3 29.8 40 30.5 42.2 30.5C44.4 30.5 46 29.7 46 28.7C46 28.5 45.9 28.3 45.8 28.1C46.2 27.8 46.5 27.4 46.5 27C46.5 26.8 46.4 26.6 46.4 26.5C46.8 26.2 47 25.8 47 25.4C47 24.1 45 23.1 42.2 23.2C39.4 23 37.4 24 37.4 25.3ZM42.2 27.5C42.3 27.5 42.4 27.5 42.4 27.5C43.2 27.5 43.9 27.7 44.4 27.9C43.8 28.1 43.1 28.2 42.2 28.2C41.3 28.2 40.5 28.1 39.9 27.9C40.4 27.7 41.1 27.5 41.9 27.5C42 27.5 42.1 27.5 42.2 27.5ZM39.3 26.2C39.9 25.9 40.9 25.6 42.2 25.6C43.5 25.6 44.5 25.8 45.1 26.2C44.4 26.5 43.4 26.7 42.2 26.7C41 26.7 40 26.5 39.3 26.2ZM39.7 27.2C39.5 27.3 39.3 27.4 39.1 27.5C38.8 27.3 38.6 27.1 38.6 26.9V26.8C39 27 39.3 27.1 39.7 27.2ZM45.3 28.6C45.3 29 44.1 29.7 42.2 29.7C40.3 29.7 39.1 29.1 39.1 28.6C39.1 28.6 39.1 28.5 39.1 28.4C39.9 28.8 41 28.9 42.1 28.9C43.2 28.9 44.3 28.7 45.1 28.3C45.2 28.4 45.3 28.5 45.3 28.6ZM45.7 26.9C45.7 27.1 45.5 27.3 45.2 27.5C45 27.4 44.8 27.3 44.6 27.2C45 27.1 45.4 26.9 45.7 26.9C45.7 26.9 45.7 26.8 45.7 26.9ZM46.2 25.2C46.2 25.4 46.1 25.6 45.8 25.8C45 25.2 43.5 24.9 42.1 24.9C40.7 24.9 39.3 25.3 38.5 25.9C38.3 25.7 38.1 25.5 38.1 25.3C38.1 24.6 39.8 23.8 42.1 23.8C44.4 23.7 46.2 24.5 46.2 25.2Z" fill="white"/>
</svg>
