<svg width="26" height="26" viewBox="0 0 26 26" fill="none" xmlns="http://www.w3.org/2000/svg">
<path d="M13.625 10.5C13.625 8.425 11.95 6.75 9.875 6.75C7.825 6.75 6.125 8.425 6.125 10.5C6.125 12.55 7.825 14.25 9.875 14.25C11.95 14.25 13.625 12.55 13.625 10.5ZM9.875 11.75C9.2 11.75 8.625 11.175 8.625 10.5C8.625 9.8 9.2 9.25 9.875 9.25C10.575 9.25 11.125 9.8 11.125 10.5C11.125 11.175 10.575 11.75 9.875 11.75ZM18 14.25C19.4 14.25 20.5 13.125 20.5 11.75C20.5 10.35 19.4 9.25 18 9.25C16.625 9.25 15.5 10.35 15.5 11.75C15.5 13.125 16.625 14.25 18 14.25ZM13 0.5C6.125 0.5 0.5 6.125 0.5 13C0.5 19.875 6.125 25.5 13 25.5C19.875 25.5 25.5 19.875 25.5 13C25.5 6.125 19.875 0.5 13 0.5ZM5.3125 19.3875C6.1625 18.7125 8.15 18 9.875 18H10.175C10.5 17.2125 11.0125 16.4 11.8 15.6875C11.125 15.5625 10.4375 15.5 9.875 15.5C8.2625 15.5 5.65 16.05 3.975 17.275C3.35 15.975 3 14.525 3 13C3 7.475 7.4875 3 13 3C18.5125 3 23 7.475 23 13C23 14.4875 22.6625 15.9125 22.0625 17.2C20.8125 16.4625 19.1125 16.125 18 16.125C16.125 16.125 12.375 17.125 12.375 19.4875V22.9625C11.0154 22.8836 9.68661 22.5254 8.47151 21.9104C7.25641 21.2953 6.18106 20.4365 5.3125 19.3875Z" fill="#79BC89"/>
</svg>
