<svg width="30" height="31" viewBox="0 0 30 31" fill="none" xmlns="http://www.w3.org/2000/svg">
<path d="M19.9875 24.2833C21.9728 24.2833 23.5905 22.6595 23.5905 20.6667C23.5905 18.6738 21.9728 17.05 19.9875 17.05C17.9876 17.05 16.3846 18.6738 16.3846 20.6667C16.3846 22.6595 17.9876 24.2833 19.9875 24.2833ZM27.6345 21.6705L29.811 23.3829C30.0021 23.5452 30.061 23.811 29.9286 24.0471L27.8698 27.6195C27.8081 27.7261 27.7104 27.807 27.5944 27.8476C27.4785 27.8882 27.3519 27.8858 27.2375 27.841L24.6787 26.8076C24.1493 27.221 23.561 27.5605 22.9434 27.8262L22.5463 30.5571C22.5169 30.8081 22.2963 31 22.0464 31H17.9287C17.664 31 17.4582 30.8081 17.414 30.5571L17.0317 27.8262C16.3994 27.5605 15.8258 27.221 15.2964 26.8076L12.7229 27.841C12.5023 27.9295 12.2229 27.841 12.1053 27.6195L10.0465 24.0471C9.98383 23.9406 9.96125 23.815 9.98283 23.6931C10.0044 23.5713 10.0687 23.4612 10.1641 23.3829L12.3406 21.6705L12.267 20.6667L12.3406 19.6481L10.1641 17.9505C10.0692 17.8717 10.0053 17.7617 9.98374 17.64C9.96219 17.5183 9.98443 17.3929 10.0465 17.2862L12.1053 13.7138C12.2229 13.4776 12.5023 13.389 12.7229 13.4776L15.2964 14.5257C15.8258 14.1124 16.3994 13.7581 17.0317 13.5071L17.414 10.7614C17.4582 10.5252 17.664 10.3333 17.9287 10.3333H22.0464C22.2963 10.3333 22.5169 10.5252 22.5463 10.7614L22.9434 13.5071C23.561 13.7581 24.1493 14.1124 24.6787 14.5257L27.2375 13.4776C27.4875 13.389 27.7375 13.4776 27.8698 13.7138L29.9286 17.2862C30.061 17.5076 30.0021 17.7881 29.811 17.9505L27.6345 19.6481L27.7081 20.6667L27.6345 21.6705ZM6.44357 8.96048C7.72297 8.96048 8.75237 7.92714 8.75237 6.64286C8.75237 5.35857 7.72297 4.31048 6.44357 4.31048C5.82734 4.31048 5.23635 4.55621 4.80061 4.99362C4.36486 5.43102 4.12007 6.02427 4.12007 6.64286C4.12007 7.92714 5.16418 8.96048 6.44357 8.96048ZM11.3553 7.29238L12.7817 8.38476C12.8847 8.4881 12.9141 8.66524 12.8259 8.81286L11.5023 11.1157C11.4288 11.2633 11.2523 11.3224 11.1053 11.2633L9.45825 10.599L8.37002 11.2486L8.09061 13.0052C8.0612 13.1676 7.92885 13.2857 7.76709 13.2857H5.12006C4.94359 13.2857 4.81124 13.1676 4.78183 13.0052L4.54653 11.2486L3.4289 10.599L1.75245 11.2633C1.62009 11.3224 1.45833 11.2633 1.3701 11.1157L0.0465813 8.81286C-0.041653 8.66524 0.00246444 8.4881 0.12011 8.38476L1.51715 7.29238L1.47304 6.64286L1.51715 5.99333L0.12011 4.90095C0.0597005 4.84964 0.0192212 4.77861 0.00577573 4.70033C-0.00766977 4.62205 0.00677708 4.54151 0.0465813 4.47286L1.3701 2.17C1.45833 2.02238 1.62009 1.96333 1.75245 2.02238L3.41419 2.68667L4.54653 2.03714L4.78183 0.280476C4.81124 0.118095 4.94359 0 5.12006 0H7.76709C7.92885 0 8.0612 0.118095 8.09061 0.280476L8.37002 2.03714L9.45825 2.68667L11.1053 2.02238C11.2523 1.96333 11.4288 2.02238 11.5023 2.17L12.8259 4.47286C12.9141 4.62048 12.8847 4.79762 12.7817 4.90095L11.3553 5.99333L11.3994 6.64286L11.3553 7.29238Z" fill="#79BC89"/>
</svg>
