<svg width="49" height="49" viewBox="0 0 49 49" fill="none" xmlns="http://www.w3.org/2000/svg">
<path d="M18.9153 46.9989C17.8128 43.4035 16.1501 40.7238 13.9259 38.9587C10.5903 36.3116 5.29038 37.9575 3.33287 35.226C1.37536 32.4946 4.70426 27.4727 5.87201 24.5096C7.04089 21.5464 1.39449 20.499 2.05374 19.6576C2.49249 19.0962 5.34663 17.4785 10.6139 14.8022C12.1102 6.26702 17.6373 2 27.1976 2C41.537 2 47 14.1564 47 21.8895C47 29.6214 40.385 37.9507 30.9619 39.7473C30.1193 40.9735 31.3343 43.3922 34.6069 47" stroke="black" stroke-width="2.67" stroke-linecap="round" stroke-linejoin="round"/>
<path d="M19.4373 13.8122C18.7016 16.6628 18.9198 18.6653 20.0932 19.8173C21.2655 20.9704 23.2635 21.7241 26.0872 22.0785C25.446 25.7571 26.2279 27.4817 28.4306 27.2545C30.6334 27.0272 31.9575 26.1126 32.4019 24.5095C35.8444 25.477 37.7108 24.667 37.9999 22.0796C38.4331 18.1984 36.3405 15.1036 35.4822 15.1036C34.6249 15.1036 32.4019 14.999 32.4019 13.8122C32.4019 12.6253 29.8054 11.956 27.462 11.956C25.1186 11.956 26.5282 10.3754 23.3107 10.9997C21.1653 11.416 19.8738 12.3531 19.4373 13.8122V13.8122Z" stroke="black" stroke-width="3" stroke-linecap="round" stroke-linejoin="round"/>
<path d="M31.8124 26.1869C30.6683 26.8967 29.0989 28.0768 28.4374 28.9993C26.7848 31.3055 25.4449 32.7084 25.1524 34.1832" fill="#7DD0A4"/>
<path d="M31.8124 26.1869C30.6683 26.8967 29.0989 28.0768 28.4374 28.9993C26.7848 31.3055 25.4449 32.7084 25.1524 34.1832" stroke="black" stroke-width="3" stroke-linecap="round" stroke-linejoin="round"/>
</svg>
